<?xml version="1.0" encoding="UTF-8"?>
<svg version="1.1" xmlns="http://www.w3.org/2000/svg" width="256" height="256">
<path d="M0 0 C84.48 0 168.96 0 256 0 C256 84.48 256 168.96 256 256 C171.52 256 87.04 256 0 256 C0 171.52 0 87.04 0 0 Z " fill="#FEFEFE" transform="translate(0,0)"/>
<path d="M0 0 C6.909375 -0.12375 13.81875 -0.2475 20.9375 -0.375 C24.18194946 -0.45693604 24.18194946 -0.45693604 27.49194336 -0.54052734 C29.23288754 -0.55807352 30.9738566 -0.57335751 32.71484375 -0.5859375 C34.0384491 -0.6319812 34.0384491 -0.6319812 35.38879395 -0.67895508 C43.85636304 -0.68599672 48.68304041 3.17705567 54.9375 8.5 C58.99101518 13.41335173 59.39808326 18.36974768 59.25 24.54296875 C58.52242795 31.69363781 54.56572459 37.01547281 49.2265625 41.484375 C40.35936033 47.18243271 29.02473477 45.30194984 19 45 C19 55.23 19 65.46 19 76 C12.73 76 6.46 76 0 76 C0 50.92 0 25.84 0 0 Z " fill="#0B090B" transform="translate(20,78)"/>
<path d="M0 0 C5.28 0 10.56 0 16 0 C21.15246975 9.66088079 25.02266221 19.81576197 29 30 C31.73945948 27.26054052 32.59835353 24.01397562 33.875 20.4375 C39.34716036 5.47925947 39.34716036 5.47925947 43 0 C45.7885289 -0.22107787 48.34653181 -0.28107535 51.125 -0.1875 C51.87910156 -0.17396484 52.63320312 -0.16042969 53.41015625 -0.14648438 C55.27374127 -0.11109985 57.13695978 -0.05729167 59 0 C58.46480964 4.10312613 57.59121757 7.24047662 55.625 10.875 C53.33340051 15.13484446 51.63837199 19.46119596 50 24 C49.00372086 26.73054282 48.00253438 29.45924889 47 32.1875 C46.7525 32.87263672 46.505 33.55777344 46.25 34.26367188 C44.82248916 38.12612958 43.1168847 41.48528111 41 45 C40.30014971 46.98863119 39.63422619 48.98947729 39 51 C38.20678156 52.98697293 37.39400318 54.96624167 36.5625 56.9375 C36.12421875 57.98035156 35.6859375 59.02320313 35.234375 60.09765625 C34.271383 62.36190644 33.29685572 64.62002185 32.3125 66.875 C31.0594621 69.85842356 30.02327514 72.93017458 29 76 C23.39 76 17.78 76 12 76 C13.57328257 70.36930449 15.32548292 65.23090521 17.8125 59.9375 C19.8782676 55.11117209 20.38051175 52.06898422 18.90625 47.03515625 C18.01114268 44.90278731 18.01114268 44.90278731 16.57421875 42.69140625 C14.73393862 39.54512087 13.52665693 36.29431463 12.3125 32.875 C9.66875406 25.59891038 6.72349958 18.4794859 3.62817383 11.38427734 C3.30099365 10.62453613 2.97381348 9.86479492 2.63671875 9.08203125 C2.34498779 8.41405518 2.05325684 7.7460791 1.75268555 7.05786133 C1 5 1 5 0 0 Z " fill="#0E0C0E" transform="translate(83,102)"/>
<path d="M0 0 C7.26 0 14.52 0 22 0 C21.28354204 2.86583185 20.53939803 5.36062464 19.4765625 8.08203125 C19.1775 8.84966797 18.8784375 9.61730469 18.5703125 10.40820312 C18.25835937 11.20162109 17.94640625 11.99503906 17.625 12.8125 C17.32078125 13.59431641 17.0165625 14.37613281 16.703125 15.18164062 C15.34688154 18.6504941 13.95977277 22.0935517 12.48828125 25.515625 C10.41483036 30.37000346 8.55717104 35.30218055 6.69335938 40.24023438 C4.97937359 44.71033985 3.04993837 48.9544183 0.86352539 53.21166992 C-0.23090734 55.47820081 -0.93137434 57.75429227 -1.5625 60.1875 C-2.60775974 63.89958459 -3.93370093 66.7283598 -6 70 C-6.56607179 71.40709273 -7.10627752 72.82477222 -7.625 74.25 C-9 78 -9 78 -10 79 C-11.56172745 79.08685603 -13.12729344 79.10702219 -14.69140625 79.09765625 C-15.63564453 79.09443359 -16.57988281 79.09121094 -17.55273438 79.08789062 C-18.54595703 79.07951172 -19.53917969 79.07113281 -20.5625 79.0625 C-21.55958984 79.05798828 -22.55667969 79.05347656 -23.58398438 79.04882812 C-26.05604849 79.03700007 -28.52799518 79.02051849 -31 79 C-29.26544865 72.94489505 -27.36088887 67.06365411 -24.9375 61.25 C-23.1334271 56.8784178 -21.44452373 52.50636112 -20 48 C-19.34 48 -18.68 48 -18 48 C-17.90203125 47.18917969 -17.8040625 46.37835938 -17.703125 45.54296875 C-16.84771474 41.2326515 -15.37732159 37.38251784 -13.75 33.3125 C-13.27747803 32.11330933 -13.27747803 32.11330933 -12.79541016 30.88989258 C-10.74949072 25.74385857 -8.55025419 20.69418834 -6.19921875 15.6796875 C-3.90131073 10.5449484 -1.98085398 5.263412 0 0 Z " fill="#FAB724" transform="translate(177,77)"/>
<path d="M0 0 C0.66 0 1.32 0 2 0 C3.42029008 3.12336519 4.83553689 6.24899218 6.25 9.375 C6.64574219 10.24511719 7.04148438 11.11523438 7.44921875 12.01171875 C9.78133459 17.17295872 11.97474846 22.36555672 14.05322266 27.63378906 C15.47527478 31.18781929 17.01281972 34.68766026 18.5625 38.1875 C24.48058659 51.61145251 24.48058659 51.61145251 26.9375 57.875 C28.57521277 62.01670604 30.36518667 66.06237636 32.265625 70.08984375 C33 72 33 72 33 75 C25.41 75 17.82 75 10 75 C8.4221875 70.91625 8.4221875 70.91625 6.8125 66.75 C4.75911088 61.45746185 2.69033397 56.17525515 0.5 50.9375 C-0.07621094 49.54917969 -0.07621094 49.54917969 -0.6640625 48.1328125 C-1.7127376 45.67363873 -2.79499977 43.23922189 -3.8984375 40.8046875 C-4.55748225 39.30737554 -5.21633707 37.80997996 -5.875 36.3125 C-6.19791016 35.62341553 -6.52082031 34.93433105 -6.85351562 34.22436523 C-10.00002391 26.9709721 -9.00224847 21.19297357 -6.15234375 13.96484375 C-5.42626389 12.28373993 -4.68782902 10.60792161 -3.9375 8.9375 C-3.37192383 7.6390918 -3.37192383 7.6390918 -2.79492188 6.31445312 C-1.87404961 4.20460655 -0.94239632 2.10029815 0 0 Z " fill="#0D0B0B" transform="translate(203,81)"/>
<path d="M0 0 C2.206875 -0.04125 4.41375 -0.0825 6.6875 -0.125 C8.54955078 -0.15980469 8.54955078 -0.15980469 10.44921875 -0.1953125 C13.83709655 -0.00896059 16.02229376 0.41999261 19 2 C20.59616743 5.19233485 20.51466114 8.53461497 20 12 C18.12984906 14.43119623 16.71861655 15.64069173 14 17 C9.33091139 17.13996069 4.67201378 17.04247285 0 17 C0 11.39 0 5.78 0 0 Z " fill="#F7F7F7" transform="translate(39,92)"/>
<path d="M0 0 C1.14688988 4.58755953 0.54411894 6.61145144 -1 11 C-3 13 -3 13 -5.33837891 13.22705078 C-6.29147949 13.21657715 -7.24458008 13.20610352 -8.2265625 13.1953125 C-9.7734375 13.18564453 -9.7734375 13.18564453 -11.3515625 13.17578125 C-12.43179688 13.15902344 -13.51203125 13.14226562 -14.625 13.125 C-15.71296875 13.11597656 -16.8009375 13.10695312 -17.921875 13.09765625 C-20.61467649 13.07403518 -23.30736535 13.03816333 -26 13 C-25.67 9.7 -25.34 6.4 -25 3 C-24.01 3 -23.02 3 -22 3 C-22.99 5.97 -23.98 8.94 -25 12 C-14.605 11.505 -14.605 11.505 -4 11 C-2.68 7.37 -1.36 3.74 0 0 Z " fill="#FCE49F" transform="translate(171,144)"/>
<path d="M0 0 C7.26 0 14.52 0 22 0 C21.67 1.32 21.34 2.64 21 4 C20.67 3.34 20.34 2.68 20 2 C13.4 2.33 6.8 2.66 0 3 C0 2.01 0 1.02 0 0 Z " fill="#F2CC70" transform="translate(177,77)"/>
<path d="M0 0 C0.33 0.99 0.66 1.98 1 3 C0.01 3.33 -0.98 3.66 -2 4 C-2.02578125 4.66386719 -2.0515625 5.32773438 -2.078125 6.01171875 C-2.42893114 11.47313246 -2.73726695 15.12478813 -7 19 C-7.66 19 -8.32 19 -9 19 C-8.70996094 18.29101562 -8.41992188 17.58203125 -8.12109375 16.8515625 C-6.65327911 13.11809668 -5.38325908 9.32299243 -4.09765625 5.5234375 C-3.02115692 3.04863833 -2.03590558 1.72848964 0 0 Z " fill="#F6BF48" transform="translate(178,79)"/>
<path d="M0 0 C1.13643966 3.40931897 0.86747764 4.00335456 -0.4375 7.1875 C-0.86869141 8.26064453 -0.86869141 8.26064453 -1.30859375 9.35546875 C-1.53675781 9.89816406 -1.76492187 10.44085938 -2 11 C-2.33 11 -2.66 11 -3 11 C-3 8.69 -3 6.38 -3 4 C-2.34 4 -1.68 4 -1 4 C-0.67 2.68 -0.34 1.36 0 0 Z " fill="#F5C557" transform="translate(175,132)"/>
<path d="M0 0 C1.60461448 4.01153621 0.45438973 7.07314774 -1 11 C-1.99 11.66 -2.98 12.32 -4 13 C-3.52140759 11.39566191 -3.04210442 9.79153584 -2.5625 8.1875 C-2.29566406 7.29417969 -2.02882812 6.40085938 -1.75390625 5.48046875 C-1.19612127 3.64526945 -0.60655425 1.81966274 0 0 Z " fill="#FDF2CC" transform="translate(171,144)"/>
<path d="M0 0 C0.99 0 1.98 0 3 0 C2.01 3.3 1.02 6.6 0 10 C-0.33 10 -0.66 10 -1 10 C-0.67 6.7 -0.34 3.4 0 0 Z " fill="#FBEFCE" transform="translate(146,147)"/>
</svg>
